<svg width="1092" height="232" viewBox="0 0 1092 232" fill="none" xmlns="http://www.w3.org/2000/svg">
<path d="M25.65 140.05C25.65 149.35 25.95 151.3 32.1 154H1.2C7.5 151.3 7.65 149.35 7.65 140.5V81.55C7.65 72.25 7.5 70.3 1.2 67.6H27.15H26.25H30.45C51.3 67.6 71.55 73.15 71.55 90.25C71.55 106.45 58.05 115.15 40.95 117.1C51.45 118.45 63.6 127.45 68.7 138.1C79.35 160.9 84.3 166.9 96.3 163.9C96.3 163.9 92.85 167.65 84.45 167.65C70.65 167.65 57.6 156.7 50.55 142.6C39.3 121 35.4 117.7 30.45 117.4H25.65V140.05ZM32.25 70.75C29.25 70.75 27.3 70.9 25.65 71.2V114.1H32.1C44.1 114.1 53.7 106.6 52.8 90.25C52.05 77.65 42.3 70.75 32.25 70.75ZM101.797 92.35V123.7C101.797 142.9 105.397 149.65 113.947 149.65C118.147 149.65 123.997 147.25 128.197 143.05V103.3C128.197 98.8 128.197 96.7 121.597 95.5L145.147 92.35V139.9C145.147 147.7 145.297 148.15 151.597 150.7L128.197 154V146.5C123.997 150.85 116.647 154 109.597 154C94.7473 154 84.8473 145.6 84.8473 126.25V103.3C84.8473 98.8 84.8473 96.7 78.3973 95.5L101.797 92.35ZM179.755 139.9C179.755 149.2 180.055 151.3 186.205 154H156.355C162.655 151.3 162.805 149.35 162.805 140.5V103.3C162.805 98.8 162.805 96.7 156.355 95.5L179.755 92.35V98.95C186.205 95.95 192.955 93.55 199.555 93.55C207.355 93.55 213.805 95.65 217.855 101.35C225.505 97.6 235.405 93.55 242.755 93.55C256.855 93.55 266.305 100.3 266.305 122.5V139.9C266.305 149.35 266.455 151.3 272.905 154H242.905C249.055 151.3 249.355 149.35 249.355 140.5V123.7C249.355 103.3 247.105 97.6 239.305 97.6C233.455 97.6 227.005 100 219.355 103.75C221.755 108.25 223.105 114.25 223.105 122.5V139.9C223.105 149.35 223.255 151.3 229.705 154H199.705C205.855 151.3 206.155 149.35 206.155 140.5V123.7C206.155 103.3 203.905 97.6 196.105 97.6C191.155 97.6 185.905 99.25 179.755 102.1V139.9ZM333.563 115.3V144.85C333.563 147.7 334.163 148.9 335.663 148.9C337.013 148.9 338.063 148.3 339.713 146.65V149.95C338.213 151.6 333.863 154 327.863 154C322.013 154 318.263 151.6 317.063 148.15C313.613 151.3 308.363 154 300.713 154C288.113 154 278.963 148.3 278.963 139.3C278.963 127.9 292.463 120.7 316.613 114.7C316.613 103.15 315.563 96.7 306.263 96.7C300.563 96.7 299.513 100.15 296.213 107.5C295.013 110.35 290.663 112.3 286.462 111.1C282.863 110.5 279.113 106.9 281.063 103.3C283.763 98.95 293.513 93.55 308.063 93.55C326.363 93.55 333.563 102.55 333.563 115.3ZM305.063 150.4C310.163 150.4 313.913 147.85 316.613 145.15V117.85C301.163 122.2 295.913 129.85 295.913 138.1C295.913 145.3 298.463 150.4 305.063 150.4ZM365.497 139.9C365.497 149.35 365.797 151.3 371.947 154H342.097C348.247 151.3 348.547 149.35 348.547 140.5V75.25C348.547 70.9 348.547 68.65 342.097 67.6L365.497 64.3V98.95C371.947 95.95 378.697 93.55 385.297 93.55C399.397 93.55 408.847 100.3 408.847 122.5V139.9C408.847 149.35 408.997 151.3 415.447 154H385.447C391.597 151.3 391.897 149.35 391.897 140.5V123.7C391.897 103.3 388.447 97.6 380.647 97.6C375.847 97.6 371.197 99.25 365.497 101.95V139.9Z" fill="white"/>
<path d="M738.85 140.05C738.85 149.35 739.15 151.3 745.3 154H714.4C720.55 151.3 720.85 149.35 720.85 140.5V81.55C720.85 72.25 720.7 70.3 714.4 67.6H745.3C739.3 70.15 738.85 72.1 738.85 81.1V109C750.7 99.4 769.3 83.2 774.7 78.55C780.55 73.9 778.75 69.85 773.65 67.6H799C792.4 69.85 785.5 74.5 778.6 79.45C777.55 80.2 763.15 92.35 752.2 101.5C756.4 105.7 786.7 138.85 788.35 140.5C797.95 149.65 799.3 151.3 808.3 154H777.1L738.85 114.4V140.05ZM833.414 150.7C839.714 150.7 849.614 146.8 854.264 141.7V145.3C849.314 150.7 840.764 154 831.314 154C810.914 154 797.714 141.1 797.714 123.7C797.714 107.05 808.964 93.55 828.614 93.55C845.114 93.55 855.164 104.05 855.164 116.5V117.7H815.114C815.114 119.65 815.114 121.6 815.264 123.7C816.464 139.6 822.614 150.7 833.414 150.7ZM826.514 96.55C819.464 96.55 815.864 103.9 815.114 114.7H838.964C838.514 104.5 835.364 96.55 826.514 96.55ZM891.491 93.55C911.741 93.55 925.091 106.75 925.091 123.7C925.091 140.8 912.641 154 892.541 154C872.441 154 859.091 140.8 859.091 123.7C859.091 106.75 871.541 93.55 891.491 93.55ZM894.491 150.85C903.941 150.85 907.991 138.85 906.941 123.7C905.741 108.7 899.891 96.7 889.691 96.7C880.241 96.7 876.191 108.7 877.241 123.7C878.441 138.85 884.291 150.85 894.491 150.85ZM951.814 139.9C951.814 149.2 952.114 151.3 958.264 154H928.414C934.714 151.3 934.864 149.35 934.864 140.5V103.3C934.864 98.8 934.864 96.7 928.414 95.5L951.814 92.35V98.95C958.264 95.95 965.014 93.55 971.614 93.55C985.714 93.55 996.364 100.3 996.364 122.5V139.9C996.364 149.35 996.514 151.3 1002.96 154H972.964C979.114 151.3 979.414 149.35 979.414 140.5V123.7C979.414 103.3 974.764 97.6 966.964 97.6C962.164 97.6 957.514 99.25 951.814 101.95V139.9ZM1005.32 175.9C1002.32 169 1011.77 163.75 1023.92 161.65C1016.57 159.7 1011.02 156.25 1011.02 151C1011.02 146.05 1016.27 141.85 1024.67 139C1013.42 136.45 1004.72 127.3 1004.72 116.5C1004.72 103.3 1017.17 93.55 1031.42 93.55C1036.37 93.55 1041.02 94.75 1045.07 96.85L1044.92 96.55C1048.37 93.25 1057.67 88.3 1061.27 88.3V103C1057.07 98.65 1050.77 95.5 1046.72 97.6C1053.62 101.65 1058.27 108.55 1058.27 116.5C1058.27 128.95 1046.57 139 1033.07 139.75C1026.92 140.8 1023.02 142.3 1023.02 144.25C1023.02 146.2 1026.62 147.1 1038.62 147.7C1054.37 148.75 1063.37 154.9 1063.97 164.05C1064.72 174.1 1052.42 182.2 1035.62 183.1C1024.82 183.7 1008.62 183.7 1005.32 175.9ZM1032.92 136.6C1040.72 136.6 1042.22 128.05 1041.32 116.5C1040.42 104.65 1037.57 96.7 1029.92 96.7C1022.27 96.7 1020.77 104.65 1021.67 116.5C1022.42 128.05 1025.42 136.6 1032.92 136.6ZM1037.42 163.9L1032.92 163.45C1023.47 163.9 1017.77 167.35 1018.22 171.85C1018.52 177.1 1026.62 180.85 1037.12 180.4C1047.02 179.8 1054.22 175.3 1053.62 170.05C1053.32 165.7 1047.92 164.5 1037.42 163.9ZM1088.27 148C1088.27 153.25 1083.77 157.6 1078.67 157.6C1073.57 157.6 1069.07 153.25 1069.07 148C1069.07 142.75 1073.57 138.55 1078.67 138.55C1083.77 138.55 1088.27 142.75 1088.27 148Z" fill="white"/>
<path d="M530.899 194.697C518.817 211.817 515.071 239.47 596.748 213.126C623.28 209.547 667.731 183.821 661.388 141.524C659.358 123.871 651.351 102.259 645.679 82.9134M530.899 194.697C514.208 190.844 502.552 184.119 492.542 175.444M530.899 194.697C634.206 208.896 630.582 69.3182 553.255 93.7896C501.301 136.992 563.223 172.038 574.701 153.307C593.672 127.929 569.02 117.053 559.296 127.022M467.942 102.551C464.238 129.742 471.255 156.999 492.542 175.444M467.942 102.551C492.542 93.4875 544.254 129.589 492.542 175.444M467.942 102.551C469.928 87.9773 474.993 73.4228 482.593 60.2547M482.593 60.2547C497.781 33.937 523.091 13.1573 554.161 8.83019M482.593 60.2547C503.114 87.4452 575.909 87.7473 554.161 8.83019M554.161 8.83019C569.364 6.71296 585.946 8.53473 603.396 15.5741M603.396 15.5741C616.09 20.6948 629.244 28.5764 642.66 39.7111C637.119 48.7563 640.381 64.8468 645.679 82.9134M603.396 15.5741C569.264 52.0975 599.036 98.6235 645.679 82.9134" stroke="white" stroke-width="15" stroke-linecap="round" stroke-linejoin="round"/>
</svg>
