<svg width="211" height="232" viewBox="0 0 211 232" fill="none" xmlns="http://www.w3.org/2000/svg">
<path d="M71.8991 194.697C59.8168 211.817 56.0713 239.47 137.748 213.126C164.28 209.547 208.731 183.821 202.388 141.524C200.358 123.871 192.351 102.259 186.679 82.9134M71.8991 194.697C55.2079 190.844 43.5521 184.119 33.5415 175.444M71.8991 194.697C175.206 208.896 171.582 69.3182 94.255 93.7896C42.3012 136.992 104.223 172.038 115.701 153.307C134.672 127.929 110.02 117.053 100.296 127.022M8.94238 102.551C5.23796 129.742 12.2552 156.999 33.5415 175.444M8.94238 102.551C33.5415 93.4875 85.2537 129.589 33.5415 175.444M8.94238 102.551C10.9279 87.9773 15.9935 73.4228 23.5929 60.2547M23.5929 60.2547C38.7811 33.937 64.0907 13.1573 95.1611 8.83019M23.5929 60.2547C44.1135 87.4452 116.909 87.7473 95.1611 8.83019M95.1611 8.83019C110.364 6.71296 126.946 8.53473 144.396 15.5741M144.396 15.5741C157.09 20.6948 170.244 28.5764 183.66 39.7111C178.119 48.7563 181.381 64.8468 186.679 82.9134M144.396 15.5741C110.264 52.0975 140.036 98.6235 186.679 82.9134" stroke="white" stroke-width="15" stroke-linecap="round" stroke-linejoin="round"/>
</svg>
